inDegrees=no
num_controls=7
num_derivatives=13
num_iterations=102
num_multipliers=7
num_parameters=0
num_slacks=7
num_states=26
objective=0.545227
objective_accelerations=0.041222
objective_balance=0.003703
objective_effort=0.040479
objective_height=0.450360
objective_ligament=0.009462
solver_duration=1201.147933
status=Solve_Succeeded
success=true
DataType=double
version=3
OpenSimVersion=4.5
endheader
time	/jointset/ground_pelvis/pelvis_tilt/value	/jointset/ground_pelvis/pelvis_tx/value	/jointset/ground_pelvis/pelvis_ty/value	/jointset/hip_r/hip_flexion_r/value	/jointset/hip_r/hip_adduction_r/value	/jointset/hip_r/hip_rotation_r/value	/jointset/back/lumbar_extension/value	/jointset/patellofemoral_r/patellar_flexion_r/value	/jointset/knee_r/knee_flexion_r/value	/jointset/knee_r/knee_adduction_r/value	/jointset/knee_r/knee_rotation_r/value	/jointset/ankle_r/ankle_angle_r/value	/jointset/subtalar_r/subtalar_angle_r/value	/jointset/ground_pelvis/pelvis_tilt/speed	/jointset/ground_pelvis/pelvis_tx/speed	/jointset/ground_pelvis/pelvis_ty/speed	/jointset/hip_r/hip_flexion_r/speed	/jointset/hip_r/hip_adduction_r/speed	/jointset/hip_r/hip_rotation_r/speed	/jointset/back/lumbar_extension/speed	/jointset/patellofemoral_r/patellar_flexion_r/speed	/jointset/knee_r/knee_flexion_r/speed	/jointset/knee_r/knee_adduction_r/speed	/jointset/knee_r/knee_rotation_r/speed	/jointset/ankle_r/ankle_angle_r/speed	/jointset/subtalar_r/subtalar_angle_r/speed	/forceset/tau_hip_flexion_r	/forceset/tau_hip_adduction_r	/forceset/tau_hip_rotation_r	/forceset/tau_knee_flexion_r	/forceset/tau_ankle_angle_r	/forceset/tau_subtalar_angle_r	/forceset/tau_lumbar_extension	lambda_cid13_p0	lambda_cid14_p0	lambda_cid14_p1	lambda_cid14_p2	lambda_cid14_p3	lambda_cid14_p4	lambda_cid14_p5	/jointset/ground_pelvis/pelvis_tilt/accel	/jointset/ground_pelvis/pelvis_tx/accel	/jointset/ground_pelvis/pelvis_ty/accel	/jointset/hip_r/hip_flexion_r/accel	/jointset/hip_r/hip_adduction_r/accel	/jointset/hip_r/hip_rotation_r/accel	/jointset/back/lumbar_extension/accel	/jointset/patellofemoral_r/patellar_flexion_r/accel	/jointset/knee_r/knee_flexion_r/accel	/jointset/knee_r/knee_adduction_r/accel	/jointset/knee_r/knee_rotation_r/accel	/jointset/ankle_r/ankle_angle_r/accel	/jointset/subtalar_r/subtalar_angle_r/accel	gamma_cid13_p0	gamma_cid14_p0	gamma_cid14_p1	gamma_cid14_p2	gamma_cid14_p3	gamma_cid14_p4	gamma_cid14_p5
0.5	-0.2144282878227748	0.0006830699064051575	0.8412682993485167	0.8936036733760456	-0.2281190812499876	-0.1316714297488365	-0.3377772444671392	0.698015954701642	0.6980159547015781	0.03627198360738082	0.1745287981504221	0.1874343752467717	0.03784547433274354	-0.5771854003925242	-0.2034263046949354	-0.4022086898672811	1.931752427827358	-0.0009574053824060277	0.2654942745349483	-0.5899258791200395	1.672333203007494	1.672333203007461	-0.2800003641149552	-3.159528617461685e-05	0.3991306527522229	0.1017536375159569	-0.1510212026004821	-0.01996349489243829	0.009381187102934075	-0.3114116812574309	0.1076949111466073	-0.009701596053616023	0.1863490165881059	-31.44320300849925	-7.664229287296907	-1.447741594812525	-4.001103729848567	-1.027611846135923	-668.113325568209	58.57572193167519	0.2831539522885128	0.5031003740717284	-0.3396066628289354	-1.278180141585858	-0.03095143542532323	-0.5015082373566196	1.699971800825158	-1.247212940317266	-1.247212940317255	0.4659140597763663	-0.002168324400476284	-0.3868959790211497	-0.09081825000332809	-1.072683382841567e-07	-1.360987342268295e-07	5.406924156950383e-07	-8.97264155751102e-07	2.89811161864133e-08	-2.237273208482652e-07	4.179354246794323e-07
0.51	-0.2201848364511012	-0.001325805051888555	0.8372301760858072	0.9128540588974056	-0.2281309505202123	-0.1290410654526603	-0.3435911272926125	0.7146743732915367	0.7146743732914922	0.03349730137256073	0.1745287040675116	0.1914054686630701	0.03885728786550082	-0.5740410704075006	-0.1983285870938528	-0.40532398641854	1.918057630934032	-0.00142449694070086	0.2606079132378561	-0.5727787147346356	1.659114198106115	1.659114198106066	-0.2748790683507036	-5.613694525233718e-06	0.3950267029322044	0.100579516349911	-0.1586708870690414	-0.01833976677805394	0.01002526507590209	-0.3137713674682106	0.1050734396054682	-0.00933743504901524	0.1928475393822696	-30.48063376739936	-8.722144567514512	-1.582386330839468	-3.85677061061129	-0.61827823605888	-672.3549806776313	58.28855708998551	0.3425496668023379	0.5161252355090575	-0.2837357436369801	-1.455201464323099	-0.05585216392948975	-0.4779528402525334	1.732884443397627	-1.394671786265445	-1.394671786267699	0.5438445612548046	0.002075524575239021	-0.4313568217150064	-0.1351403306353282	-8.381110875643915e-08	-5.451036403003464e-08	7.655371783557648e-07	-3.183110318966857e-07	-5.058902237765801e-08	-1.419666067065682e-07	3.988861381773939e-07
0.52	-0.2259074463505386	-0.003283099277694938	0.8331636509391125	0.9319594820496089	-0.2281477435355993	-0.1264587153223289	-0.3492313793370317	0.7311935163281744	0.731193516328149	0.03077555354068456	0.1745282886252412	0.1953336801135237	0.03985647393045163	-0.5703976546147548	-0.1931101581974695	-0.4078890666643037	1.902759953996017	-0.001942154414912357	0.2558914413660831	-0.5551997229092465	1.64447809235605	1.644478092355987	-0.2694134835262421	-9.586715777208684e-05	0.3905542595832738	0.09922814395466066	-0.1663205715376015	-0.01671603866367111	0.01066934304886645	-0.3161310536789905	0.1024519680643285	-0.008973274044416677	0.1993460621764329	-29.5118004613754	-9.783667201420981	-1.715344331899642	-3.715354888742723	-0.2193660656562737	-676.6588107236598	58.05452576823363	0.3829711138329795	0.5272426331318689	-0.2295634017298697	-1.598756150523864	-0.04106461860865675	-0.4675303522927904	1.786337288822237	-1.530633110054095	-1.530633110054109	0.5347718718183541	-0.02541533537972034	-0.4605946848035568	-0.126268495844216	-5.101618106288132e-08	7.264082705741968e-08	1.150449243453333e-06	5.711893908728469e-07	-1.811042782438511e-07	-1.430252983885366e-08	4.070519246393762e-07
0.53	-0.2315913525415571	-0.005187666509341812	0.8290742348143236	0.9509043825344217	-0.2281692936247934	-0.1239256583471207	-0.3546936982002931	0.7475594264080522	0.7475594264080754	0.02810707637455039	0.1745280953043129	0.1992155990475827	0.0408422061178992	-0.5663066619329408	-0.1877872338917795	-0.4098986802882529	1.885961426262036	-0.002378341386456187	0.2507580249476536	-0.5372108809081209	1.628472828452338	1.628472828452293	-0.26421982051387	3.258847160973238e-05	0.3857711645284654	0.09788615233710014	-0.1736659000282748	-0.01526535645597388	0.01125347104353793	-0.3188540805086076	0.1003068815090849	-0.008677320292227233	0.205578654973278	-28.53731630313424	-10.69933622302419	-1.85534910209845	-3.569432531702738	0.1063193021458547	-681.0094865482357	57.84057635298092	0.4337116086977841	0.5371755337584639	-0.172328091274967	-1.75919501232923	-0.04618688622546732	-0.5305265081316318	1.813132980998209	-1.670130547498172	-1.67013054749551	0.5212339047241453	0.02847587305282311	-0.4959611327956516	-0.1426505010507211	-2.80786580495681e-08	1.55004308905304e-07	1.381684354924106e-06	1.141175042011983e-06	-2.642742877470375e-07	6.819116517396968e-08	4.214339231399941e-07
0.54	-0.2372320391530889	-0.007038532857037609	0.8249675890035858	0.9696735389563956	-0.2281954638136624	-0.1214427913804	-0.3599745335784951	0.7637583523454993	0.7637583523455711	0.02549244991629573	0.1745284865118678	0.2030479281876983	0.0418136211879034	-0.5617537387174395	-0.1823699814072542	-0.4113350038541035	1.867611141428294	-0.002866174349928158	0.2458534396686798	-0.5189030258973756	1.611081263869889	1.611081263869861	-0.2586433419503977	2.103853921907688e-05	0.3806363007946104	0.0963647204659895	-0.1810112285189489	-0.01381467424827875	0.01183759903821125	-0.321577107338225	0.09816179495384068	-0.008381366540040682	0.2118112477701228	-27.55813357360171	-11.62131824376883	-1.996757467366323	-3.422944507436079	0.4413906839477703	-685.4573275306317	57.62580835355732	0.4753572205704429	0.5461082688988931	-0.1149053901101601	-1.909107570476135	-0.05139381699428398	-0.4217641244016649	1.850139890746169	-1.807893245801582	-1.807893245801582	0.611334982038372	-0.05341644773421506	-0.5309484206128666	-0.1621565465542415	-1.604719978886603e-08	1.878154315945145e-07	1.442893900680125e-06	1.357654988368548e-06	-2.950623225507263e-07	1.007091185601043e-07	4.426934328322939e-07
0.55	-0.2428249890750102	-0.008834829507966926	0.8208494389230383	0.9882517535569323	-0.2282265188731653	-0.1190089258959704	-0.3650707575525253	0.779776659774401	0.7797766597744437	0.02293424652565006	0.1745286546210905	0.2068272920611016	0.04276928905228904	-0.5567624214921196	-0.176879942097746	-0.412198833938504	1.847789574552695	-0.003346525338282869	0.2409189114840112	-0.5003021768158029	1.592365292680727	1.592365292680725	-0.2529785442420677	1.171936904175076e-05	0.3751852734602392	0.09474975191899238	-0.1882281993363465	-0.01231746616878525	0.0123028313887684	-0.3241770146536087	0.09588918387255962	-0.008063556626866877	0.2178818662125836	-26.57549179462334	-12.57924298983278	-2.135358436426651	-3.276458378368754	0.8353975888331795	-689.8069402684956	57.39910172794207	0.5221083308772121	0.5518003929476611	-0.05767138083342994	-2.054990721018791	-0.04625836850932702	-0.5293576325633165	1.870996230795685	-1.935686543013794	-1.935686543009958	0.5471512695729761	0.0254602702357945	-0.5599036154385997	-0.163626149622593	-8.833020711512967e-09	2.023928231633733e-07	1.447641377578216e-06	1.445170461864264e-06	-3.071557298927918e-07	1.162804065811822e-07	4.589627469141881e-07
0.5600000000000001	-0.2483658079532052	-0.01057595603960699	0.8167255406290012	1.00662449059373	-0.2282623579683024	-0.1166244177868008	-0.3699797852729531	0.7956013599939027	0.7956013599939168	0.02043331093295638	0.1745287595229899	0.2105506009160432	0.04370831540303469	-0.5513275299722218	-0.1713359575494036	-0.4124846465520424	1.826515628680415	-0.003822981476767299	0.2359819646167881	-0.4814637751769157	1.572359821989955	1.572359821989978	-0.2471897823600311	8.397074675744705e-06	0.3694252971022938	0.09303641773798944	-0.1954451701537448	-0.01082025808929388	0.01276806373933008	-0.3267769219689925	0.09361657279127795	-0.007745746713695976	0.2239524846550442	-25.59090642728596	-13.54478188289018	-2.27666432845725	-3.127972553525589	1.245216175398522	-694.2726558014117	57.15855936818768	0.56407207948604	0.5568973166657133	0.0006981040622661653	-2.19958336981257	-0.05061484702022614	-0.4222478609125629	1.897650402209066	-2.065793146123565	-2.065793146123573	0.6361278167797019	-0.05221707257195295	-0.5927382253276886	-0.181829673355397	-7.399576654178516e-09	1.95089737387811e-07	1.384634371846794e-06	1.377928567926966e-06	-2.968155842809097e-07	1.115156961641926e-07	4.692438262635957e-07
